
    <svg xmlns="http://www.w3.org/2000/svg" width="1100" height="1100" viewBox="0 0 1100 1100" version="1.1">
      <path
        className="fill-[#134e4a]"
        d="M 470 34.560 C 468.625 34.796, 464.350 35.493, 460.500 36.110 C 431.766 40.715, 404.925 57.364, 381.819 84.916 C 354.960 116.942, 333.049 160.795, 318.072 212.500 L 314.306 225.500 310.403 225.249 C 308.256 225.111, 298.763 224.115, 289.307 223.035 C 237.162 217.082, 181.859 218.467, 145.041 226.648 C 48.897 248.012, 7.121 316.285, 36.059 404.755 C 37.724 409.845, 39.859 415.829, 40.803 418.053 L 42.520 422.096 44.701 420.064 C 47.582 417.380, 53.665 414, 55.614 414 C 56.468 414, 56.932 413.437, 56.645 412.750 C 53.379 404.930, 47.469 384.003, 45.841 374.500 C 43.155 358.822, 43.616 335.730, 46.855 323.671 C 52.732 301.796, 66.963 281.743, 86.178 268.264 C 121.429 243.534, 191.580 229.590, 263.669 232.982 C 293.775 234.398, 312.555 236.293, 311.613 237.818 C 310.760 239.198, 305.136 268.650, 302.603 285 C 296.053 327.284, 293.515 370.608, 294.286 426.949 L 294.840 467.399 281.560 483.949 C 264.992 504.599, 247.331 528.126, 234.231 547 C 224.144 561.535, 203.402 593.351, 202.676 595.405 C 202.463 596.007, 199.631 594.025, 196.383 591 C 170.389 566.792, 160.986 557.562, 147.574 543.088 C 129.618 523.711, 117.544 509.439, 104.170 491.786 C 94.864 479.502, 94.464 479.121, 92.333 480.517 C 87.623 483.604, 82.875 486, 81.470 486 C 80.661 486, 80 486.255, 80 486.566 C 80 487.430, 93.477 505.489, 100.846 514.500 C 125.991 545.249, 154.788 574.346, 190.073 604.659 L 194.645 608.588 187.263 621.544 C 178.795 636.408, 160.572 672.542, 153.749 688 C 135.719 728.850, 121.099 774.844, 116.399 805.500 C 113.659 823.375, 113.852 854.459, 116.801 870.182 C 126.874 923.886, 158.309 956.918, 210 968.114 C 223.854 971.115, 259.086 971.848, 279 969.550 C 321.639 964.630, 367.569 950.838, 412.933 929.333 C 420.321 925.831, 426.659 923.311, 427.017 923.733 C 427.376 924.155, 431.404 930.125, 435.968 937 C 452.579 962.019, 474.712 989.711, 490.949 1005.788 C 517.279 1031.858, 549.243 1050.071, 580.341 1056.721 C 591.515 1059.110, 617.522 1059.166, 628 1056.823 C 651.952 1051.466, 675.679 1037.753, 693.268 1019.101 C 725.205 985.235, 749.365 938.846, 765.947 879.553 C 769.415 867.151, 769.719 866.512, 772.048 866.746 C 773.397 866.882, 781.025 867.663, 789 868.484 C 841.605 873.894, 896.886 872.499, 931.500 864.887 C 974.781 855.370, 1011.357 832.978, 1030.045 804.558 C 1042.168 786.121, 1047.339 767.871, 1047.345 743.500 C 1047.349 727.831, 1045.659 716.499, 1040.858 700.003 C 1038.426 691.645, 1031.541 672.471, 1030.531 671.244 C 1030.416 671.103, 1029.256 671.911, 1027.955 673.039 C 1026.654 674.167, 1024.070 676.030, 1022.213 677.178 C 1019.954 678.573, 1019.012 679.800, 1019.367 680.882 C 1019.659 681.772, 1022.362 689.700, 1025.372 698.500 C 1032.543 719.460, 1034.445 730.940, 1033.721 748.895 C 1033.069 765.069, 1030.909 774.255, 1024.679 787.354 C 1013.700 810.436, 994.199 828.463, 965.500 842.059 C 941.605 853.379, 921.043 858.696, 885.662 862.702 C 865.291 865.008, 808.279 865.039, 786.678 862.756 C 778.525 861.894, 771.630 860.963, 771.355 860.688 C 771.080 860.413, 772.206 853.508, 773.857 845.344 C 783.830 796.036, 787.654 746.031, 786.614 678.500 C 786.258 655.400, 785.741 635.150, 785.465 633.500 C 785.017 630.820, 786.255 629.007, 797.071 616.500 C 823.464 585.983, 851.087 550.025, 871 520.266 C 877.325 510.813, 882.858 503.061, 883.297 503.040 C 883.735 503.018, 896.118 515.038, 910.816 529.750 C 941.483 560.448, 955.994 577.292, 979.509 609.485 L 981.519 612.236 985.290 610.118 C 987.364 608.953, 989.872 608, 990.864 608 C 991.855 608, 992.949 607.718, 993.294 607.373 C 994.132 606.535, 989.714 600.231, 978.047 585.619 C 955.701 557.633, 928.286 529.896, 891.687 498.249 L 887.928 494.997 895.801 481.749 C 927.944 427.661, 950.724 374.925, 963.945 324 C 970.605 298.344, 972.355 284.978, 972.390 259.500 C 972.431 229.304, 969.110 212.344, 959.073 191.500 C 940.799 153.550, 908.219 131.267, 861 124.424 C 845.356 122.157, 812.881 122.901, 795.093 125.934 C 757.620 132.323, 706.929 148.418, 670.053 165.637 C 661.360 169.696, 660.528 169.906, 659.625 168.274 C 657.398 164.246, 639.387 138.076, 633.681 130.578 C 602.883 90.102, 577.198 66.724, 546 50.772 C 534.042 44.657, 517.454 38.891, 505 36.519 C 496.664 34.931, 474.932 33.715, 470 34.560 M 466.334 51.481 C 425.335 58.920, 387.124 92.994, 362.021 144.500 C 351.329 166.439, 335.053 209.825, 331.575 225.659 L 330.911 228.684 347.205 231.891 C 388.188 239.958, 432.565 252.320, 475.773 267.706 C 491.790 273.410, 494.276 274.046, 495.907 272.857 C 496.931 272.110, 506.013 265.461, 516.089 258.080 C 558.630 226.918, 601.084 200.224, 640.271 180 C 645.067 177.525, 648.993 175.103, 648.995 174.618 C 649.003 173.263, 635.731 154.884, 625.081 141.500 C 613.395 126.816, 584.879 97.947, 572 87.764 C 551.617 71.648, 531.276 59.865, 515.546 55.062 C 499.349 50.117, 481.150 48.792, 466.334 51.481 M 817 139.955 C 786.236 142.519, 744.751 153.222, 702.500 169.498 C 689.673 174.439, 670.022 182.663, 669.263 183.408 C 669.133 183.535, 671.518 188.108, 674.562 193.570 C 684.348 211.126, 705 254.203, 705 257.059 C 705 257.452, 703.763 257.982, 702.250 258.237 C 700.737 258.493, 698.906 258.881, 698.181 259.101 C 697.318 259.362, 692.993 251.894, 685.672 237.500 C 673.515 213.597, 659.390 189, 657.821 189 C 656.480 189, 625.016 204.770, 612.581 211.675 C 583.280 227.943, 537.929 256.818, 515.639 273.396 L 507.779 279.242 529.139 287.955 C 565.524 302.796, 592.623 314.776, 627.885 331.610 C 635.247 335.124, 641.404 338, 641.567 338 C 643.416 338, 711.195 374.971, 731.688 387.158 C 738.941 391.471, 745.094 395, 745.361 395 C 746.508 395, 732.318 349.477, 724.631 328.500 C 720.282 316.629, 720.083 314, 723.539 314 C 724.251 314, 725.032 313.438, 725.274 312.750 C 726.120 310.348, 738.641 351.614, 747.317 385.398 L 750.629 398.297 767.565 408.911 C 802.917 431.068, 851.113 464.964, 873.395 483.343 C 879.677 488.524, 880.397 488.873, 881.485 487.265 C 887.834 477.886, 910.761 432.597, 919.840 411.500 C 936.423 372.967, 947.480 335.630, 953.155 299 C 955.048 286.781, 955.410 280.331, 955.451 258 C 955.498 232.474, 955.402 231.114, 952.826 221 C 939.659 169.297, 901.423 141.842, 839.500 139.629 C 832.350 139.373, 822.225 139.520, 817 139.955 M 327.041 242.750 C 324.914 250.331, 318.787 279.905, 316.480 293.733 C 309.754 334.039, 307.023 366.979, 306.341 416 L 305.805 454.500 310.652 449.005 C 332.746 423.962, 346.683 409.202, 374.442 381.447 C 412.223 343.672, 441.244 317.308, 479.011 286.453 C 483.691 282.629, 487.615 279.050, 487.730 278.500 C 488.316 275.690, 417.243 255.805, 377 247.521 C 362.191 244.472, 331.257 239, 328.832 239 C 328.426 239, 327.620 240.688, 327.041 242.750 M 487.991 294.136 C 432.974 336.413, 370.334 394.314, 322.680 446.942 C 307.468 463.741, 306.022 465.656, 306.442 468.442 C 306.695 470.124, 307.167 477.800, 307.491 485.500 C 309.809 540.645, 320.564 615.918, 335.063 678.487 C 337.229 687.830, 339 695.806, 339 696.212 C 339 697.130, 371.447 716.392, 395.640 729.835 C 427.203 747.375, 476.047 771.359, 510.302 786.138 C 540.847 799.317, 580.677 815, 583.602 815 C 586.506 815, 633.725 777.634, 660.500 754.147 C 698.164 721.108, 740.016 678.418, 772.899 639.500 L 782.193 628.500 781.543 615 C 778.925 560.617, 772.314 508.386, 761.925 460 C 755.481 429.986, 748.074 401.664, 746.201 399.874 C 742.042 395.897, 693.445 367.240, 666 352.580 C 624.203 330.254, 571.350 307.003, 521.336 288.941 C 512.289 285.673, 504.346 283, 503.685 283 C 503.024 283, 495.962 288.011, 487.991 294.136 M 752.375 406.250 C 754.427 413.832, 763.609 458.290, 767.401 479 C 775.055 520.804, 779.505 555.608, 783.498 604.911 C 784.318 615.038, 785.182 623.516, 785.419 623.752 C 785.997 624.330, 805.992 599.142, 820.150 580 C 839.247 554.181, 854.113 532.315, 869.759 507.031 L 876.238 496.562 873.244 494.031 C 871.598 492.639, 865.132 487.175, 858.875 481.889 C 844.593 469.822, 819.876 450.590, 801 436.858 C 784.637 424.954, 753.740 404, 752.550 404 C 752.119 404, 752.041 405.012, 752.375 406.250 M 284.513 490.689 C 272.651 504.894, 246.827 539.019, 234.010 557.422 C 223.282 572.827, 207 598.185, 207 599.488 C 207 601.256, 241.549 629.222, 266.615 647.744 C 280.299 657.854, 319.086 684.391, 328.150 689.844 L 331.800 692.040 329.413 682.770 C 325.533 667.709, 317.433 631.062, 312.996 608.500 C 305.932 572.576, 300.792 535.307, 297.565 496.620 C 296.745 486.786, 295.879 478.546, 295.642 478.309 C 295.405 478.071, 290.397 483.642, 284.513 490.689 M 198.186 613.332 C 195.665 616.523, 179.672 646.439, 171.833 662.626 C 151.983 703.617, 137.677 744.890, 129.587 784.500 C 125.877 802.665, 124.684 814.795, 124.767 833.500 C 124.884 860.012, 129.337 880.766, 139.067 900.146 C 144.579 911.123, 147.880 915.815, 156.412 924.797 C 171.839 941.037, 191.734 951.096, 216.926 955.392 C 227.908 957.265, 257.028 957.569, 273.144 955.978 C 307.631 952.574, 346.760 942.880, 385.713 928.092 C 402.357 921.773, 420 914, 420 912.986 C 420 912.546, 416.803 906.631, 412.895 899.843 C 408.988 893.054, 402.952 881.846, 399.482 874.937 C 393.505 863.036, 393.273 862.311, 395.073 861.187 C 396.118 860.534, 397.152 860, 397.371 860 C 397.590 860, 401.805 867.538, 406.738 876.750 C 411.671 885.962, 418.032 897.424, 420.874 902.219 C 426.810 912.236, 424.370 911.994, 440.500 904.161 C 456.489 896.396, 481.015 882.944, 501.460 870.726 C 533.793 851.402, 577.873 821.473, 576.306 819.906 C 575.856 819.456, 569.866 817.084, 562.994 814.636 C 496.802 791.047, 414.924 753.075, 352.615 717.070 C 347.729 714.246, 343.616 712.063, 343.477 712.218 C 342.532 713.265, 360.129 768.225, 368.861 791.500 C 371.543 798.650, 373.545 804.837, 373.310 805.250 C 373.075 805.663, 371.829 806, 370.542 806 C 368.457 806, 367.684 804.605, 363.474 793.250 C 355.924 772.884, 347.363 746.993, 341.415 726.534 C 338.382 716.102, 335.810 707.495, 335.700 707.406 C 335.590 707.317, 327.366 702.301, 317.424 696.259 C 282.004 674.732, 241.853 646.549, 209.328 620.385 C 202.052 614.532, 198.843 612.500, 198.186 613.332 M 780.988 634.644 C 780.502 635.783, 773.337 643.732, 750.500 668.469 C 707.666 714.866, 645.148 772.817, 595.670 811.989 C 592.552 814.458, 590 816.735, 590 817.048 C 590 817.696, 593.024 818.730, 619.500 827.132 C 644.468 835.056, 672.961 842.760, 698.126 848.391 C 721.101 853.532, 753.287 859.228, 756.881 858.790 C 759.038 858.527, 759.530 857.420, 762.110 847 C 770.119 814.664, 776.623 771.950, 780.003 729.500 C 782.458 698.669, 783.176 629.515, 780.988 634.644 M 565.500 835.146 C 526.865 864.591, 480.991 894.291, 443.767 913.960 L 432.034 920.159 436.190 926.330 C 463.098 966.281, 496.520 1001.894, 524.500 1020.427 C 539.960 1030.667, 558.375 1038.898, 575.500 1043.223 C 583.304 1045.194, 586.957 1045.489, 603 1045.444 C 620.244 1045.397, 622.104 1045.208, 630.400 1042.657 C 650.501 1036.479, 663.859 1028.302, 679.543 1012.574 C 708.921 983.115, 733.850 938.885, 751.139 885.542 C 753.806 877.315, 756.246 869.207, 756.562 867.524 L 757.136 864.464 744.885 862.688 C 705.893 857.035, 647.187 842.701, 598.605 826.971 C 590.161 824.237, 583.083 822.043, 582.876 822.095 C 582.669 822.147, 574.850 828.020, 565.500 835.146"
        stroke="none"
        fill="#060606"
        fillRule="evenodd"
      />
      <path
        d="M 699.048 258.949 C 698.249 259.455, 697.287 259.678, 696.911 259.445 C 696.535 259.212, 695.671 259.692, 694.991 260.511 C 694.311 261.330, 693.224 262, 692.575 262 C 690.372 262, 683.008 270.291, 680.498 275.596 C 677.002 282.985, 676.998 293.007, 680.488 300.383 C 685.526 311.033, 694.448 317.062, 706.268 317.803 C 718.500 318.570, 729.016 312.570, 734.841 301.500 C 737.083 297.239, 737.472 295.244, 737.474 288 C 737.476 281.025, 737.055 278.692, 735.130 275 C 729.291 263.798, 719.729 258.030, 707 258.030 C 703.425 258.031, 699.846 258.444, 699.048 258.949 M 57.500 413.122 C 50.803 415.482, 47.762 417.322, 42.429 422.241 C 31.823 432.022, 27.714 445.853, 31.359 459.500 C 34.898 472.748, 42.721 481.004, 57.297 486.874 C 60.861 488.309, 74.651 488.335, 79.101 486.915 C 93.621 482.283, 103.351 471.349, 106.066 456.616 C 109.139 439.945, 100.405 423.279, 84.500 415.462 C 79.385 412.949, 77.172 412.481, 69.500 412.290 C 64.550 412.166, 59.150 412.541, 57.500 413.122 M 413 453.627 C 392.926 455.920, 378.303 467.090, 371.823 485.083 C 369.561 491.361, 369.504 492.453, 369.189 535.500 C 368.803 588.246, 369.235 591.435, 378.401 603.596 C 394.500 624.955, 433.587 628.200, 454.373 609.903 C 459.216 605.640, 466 596.092, 466 593.540 C 466 592.758, 466.374 591.887, 466.831 591.604 C 469.046 590.236, 470.118 576.547, 469.815 553.500 L 469.500 529.500 447.500 529.217 C 435.400 529.062, 424.488 529.183, 423.250 529.487 C 421.050 530.026, 421 530.350, 421 544.019 L 421 558 431.147 558 L 441.294 558 440.738 567.317 C 440.066 578.572, 437.689 584.359, 432.241 588 C 428.977 590.181, 427.407 590.500, 419.927 590.500 C 412.507 590.500, 410.880 590.176, 407.837 588.090 C 405.902 586.765, 403.235 584.098, 401.910 582.163 L 399.500 578.646 399.500 538.573 C 399.500 498.690, 399.511 498.480, 401.797 494.198 C 407.075 484.313, 419.776 480.935, 429.199 486.911 C 432.954 489.292, 434.173 490.848, 435.895 495.449 C 437.053 498.543, 438 501.958, 438 503.038 C 438 504.904, 438.766 505, 453.615 505 L 469.230 505 468.539 499.250 C 466.946 486.013, 462.045 474.259, 454.874 466.479 C 450.959 462.231, 442.069 457.152, 435 455.123 C 430.863 453.936, 417.972 453.059, 413 453.627 M 658 454.064 C 644.032 455.484, 637.114 458.366, 628.243 466.458 C 619.656 474.290, 615.474 487.392, 616.237 504.075 C 617.313 527.634, 625.687 537.705, 651.528 546.521 C 655.913 548.017, 660.850 549.596, 662.500 550.030 C 674.239 553.119, 683.204 558.454, 684.967 563.399 C 685.535 564.994, 686 569.765, 686 574.001 C 686 582.854, 684.026 586.908, 677.997 590.440 C 672.864 593.446, 659.149 593.371, 653.405 590.304 C 648.396 587.629, 643.440 582.139, 641.374 576.976 C 639.666 572.707, 640.018 572.711, 630.747 576.848 C 628.411 577.890, 623.575 580.004, 620 581.545 C 616.425 583.087, 613.143 584.650, 612.706 585.018 C 611.598 585.953, 615.728 596.678, 619.052 601.500 C 626.364 612.108, 636.070 617.913, 651 620.607 C 662.938 622.762, 676.132 621.935, 687 618.352 C 699.455 614.246, 709.826 603.904, 713.455 591.972 C 715.757 584.399, 716.529 569.877, 715.077 561.439 C 711.695 541.777, 702.904 533.966, 673 524.050 C 655.006 518.083, 650.354 515.520, 647.499 509.998 C 645.156 505.468, 645.469 492.555, 648.007 488.990 C 652.401 482.820, 665.016 480.020, 673.136 483.412 C 677.475 485.226, 683.962 492.234, 685.605 496.883 C 686.966 500.735, 687.477 500.834, 693 498.307 C 712.900 489.205, 713.247 488.986, 712.627 485.887 C 712.306 484.282, 710.842 480.427, 709.372 477.322 C 700.984 459.591, 683.131 451.508, 658 454.064 M 495 537.420 L 495 620 509.500 620 L 524 620 524 585.956 L 524 551.912 531.180 552.206 L 538.361 552.500 545.771 570 C 549.846 579.625, 556.243 594.700, 559.986 603.500 L 566.791 619.500 583.396 619.774 C 594.623 619.960, 600 619.704, 600 618.986 C 600 618.008, 595.675 608.138, 587.519 590.500 C 583.942 582.766, 580.478 575.122, 578.430 570.447 C 577.695 568.768, 575.679 564.268, 573.951 560.447 C 568.463 548.314, 568.511 549.275, 573.279 547.083 C 581.713 543.207, 588.381 535.658, 592.228 525.632 C 594.674 519.257, 595.783 497.516, 594.117 488.606 C 591.267 473.369, 583.093 463.491, 568.500 457.650 C 563.921 455.817, 560.619 455.615, 529.250 455.244 L 495 454.840 495 537.420 M 524 503.481 L 524 522.962 526.592 523.612 C 528.017 523.970, 534.657 524.052, 541.347 523.794 C 561.132 523.032, 564 520.444, 564 503.352 C 564 492.717, 561.993 487.229, 557.327 485.103 C 555.896 484.451, 548.587 484, 539.453 484 L 524 484 524 503.481 M 993 607.318 C 973.692 612.480, 961.318 630.751, 964.011 650.121 C 965.547 661.170, 970.917 669.864, 979.937 675.906 C 988.211 681.448, 991.493 682.474, 1001 682.488 C 1017.805 682.512, 1028.871 675.839, 1036.128 661.304 C 1044.100 645.336, 1039.111 624.750, 1024.634 613.882 C 1016.203 607.552, 1002.646 604.739, 993 607.318 M 372.750 805.305 C 370.137 805.872, 368 806.710, 368 807.168 C 368 807.625, 367.397 808, 366.659 808 C 364.467 808, 356.453 816.200, 353.933 821.022 C 350.583 827.429, 350.531 840.466, 353.828 847.143 C 356.785 853.134, 362.212 858.540, 368.500 861.759 C 372.621 863.868, 374.830 864.306, 381.070 864.249 C 390.447 864.163, 396.543 861.572, 403.079 854.896 C 415.603 842.102, 412.743 818.402, 397.544 809.032 C 389.892 804.314, 382.468 803.198, 372.750 805.305"
        stroke="none"
        fill="#fa4405"
        fillRule="evenodd"
      />
    </svg>